<svg width="29" height="22" viewBox="0 0 29 22" fill="none" xmlns="http://www.w3.org/2000/svg">
<path d="M1.24334 14.9201L14.9201 14.9201L14.9201 20.5152C14.9201 20.7539 15.0575 20.9721 15.272 21.0753C15.4883 21.1779 15.7432 21.1499 15.9304 21.0001L28.3638 11.0533C28.5111 10.9358 28.5969 10.7574 28.5969 10.5684C28.5969 10.3794 28.5111 10.201 28.3638 10.0829L15.9304 0.136146C15.8178 0.0466254 15.6804 -1.14497e-06 15.5418 -1.15709e-06C15.4504 -1.16508e-06 15.3578 0.0205134 15.272 0.0615437C15.0575 0.164741 14.9201 0.382949 14.9201 0.621671L14.9201 6.21672L1.24335 6.21672C0.557641 6.21672 5.40304e-07 6.77436 4.80358e-07 7.46006L-6.31251e-08 13.6768C-1.23071e-07 14.3625 0.55764 14.9201 1.24334 14.9201ZM15.5418 7.46007C15.8856 7.46007 16.1635 7.18156 16.1635 6.83839L16.1635 1.91537L26.98 10.5684L16.1635 19.2215L16.1635 14.2985C16.1635 13.9553 15.8856 13.6768 15.5418 13.6768L1.24334 13.6768L1.2421 7.46006L15.5418 7.46007Z" fill="#F8F8F8"/>
</svg>
