<svg enable-background="new 0 0 24 24" height="512" viewBox="0 0 24 24" width="512" xmlns="http://www.w3.org/2000/svg"><path d="m20.672.75h-17.344c-1.422 0-2.578 1.156-2.578 2.578v17.344c0 1.422 1.156 2.578 2.578 2.578h17.344c1.422 0 2.578-1.156 2.578-2.578v-17.344c0-1.422-1.156-2.578-2.578-2.578z" fill="#2196f3"/><path d="m19.706 6.329-1.57-1.288c-.608-.497-1.508-.41-2.009.197l-6.339 7.699-2.335-1.999c-.596-.51-1.5-.44-2.012.155l-1.324 1.541c-.248.29-.369.658-.34 1.038s.205.727.495.975l5.018 4.292c.261.224.586.343.926.343.042 0 .084-.002.127-.006.385-.033.732-.216.979-.515l8.583-10.423c.243-.294.356-.665.319-1.045s-.223-.722-.518-.964z" fill="#fff"/><path d="m21.25 24h-18.5c-1.517 0-2.75-1.233-2.75-2.75v-18.5c0-1.517 1.233-2.75 2.75-2.75h18.5c1.517 0 2.75 1.233 2.75 2.75v18.5c0 1.517-1.233 2.75-2.75 2.75zm-18.5-22.5c-.689 0-1.25.561-1.25 1.25v18.5c0 .689.561 1.25 1.25 1.25h18.5c.689 0 1.25-.561 1.25-1.25v-18.5c0-.689-.561-1.25-1.25-1.25z"/><path d="m10.215 19.282c-.34 0-.665-.119-.926-.343l-5.018-4.292c-.29-.248-.466-.595-.495-.975s.092-.748.34-1.038l1.324-1.541c.513-.596 1.416-.665 2.012-.155l2.335 1.999 6.339-7.699c.501-.607 1.401-.694 2.009-.197l1.57 1.288c.295.242.479.585.516.965s-.076.751-.319 1.045l-8.582 10.423c-.246.299-.593.481-.979.515-.042.003-.084.005-.126.005zm.049-1.482h.01zm-4.962-4.244 4.923 4.21 8.473-10.323-1.458-1.196-6.78 8.234c-.128.155-.313.253-.514.271-.202.02-.399-.047-.553-.177l-2.862-2.449z"/></svg>